<svg width="auto" height="auto" fill="none" xmlns="http://www.w3.org/2000/svg">
    <g clip-path="url(#a)" style="mix-blend-mode:luminosity">
        <path d="M0 0h32v24H0V0Z" fill="#fff" />
        <path
            d="M28.444 0H3.556C1.592 0 0 1.79 0 4v16c0 2.21 1.592 4 3.556 4h24.888C30.408 24 32 22.21 32 20V4c0-2.21-1.592-4-3.556-4Z"
            fill="#fff" />
        <path
            d="M28.443.5H3.554C1.836.5.444 2.067.444 4v16c0 1.933 1.392 3.5 3.11 3.5h24.89c1.718 0 3.11-1.567 3.11-3.5V4c0-1.933-1.392-3.5-3.11-3.5Z"
            stroke="#333" stroke-opacity=".07" stroke-width=".97" />
        <path
            d="M28.94 16.226h-1.684V17h1.621c.686 0 1.123-.492 1.123-1.195 0-.703-.375-1.055-.998-1.055h-.75c-.186 0-.31-.14-.31-.352 0-.21.124-.351.312-.351h1.434l.312-.774h-1.684c-.686 0-1.122.492-1.122 1.125 0 .704.374 1.055.997 1.055h.749c.186 0 .31.14.31.352.064.28-.06.421-.31.421Zm-3.056 0H24.2V17h1.622c.685 0 1.122-.492 1.122-1.195 0-.703-.375-1.055-.998-1.055h-.749c-.186 0-.31-.14-.31-.352 0-.21.124-.351.311-.351h1.434l.312-.774H25.26c-.686 0-1.122.492-1.122 1.125 0 .704.375 1.055.997 1.055h.75c.186 0 .31.14.31.352.063.28-.124.421-.311.421ZM23.7 13.977v-.774h-2.62v3.726h2.62v-.773h-1.87v-.773h1.809v-.773h-1.81v-.704h1.87v.071Zm-4.24 0c.312 0 .436.21.436.421 0 .212-.124.423-.436.423h-.935v-.915l.935.071Zm-.935 1.617h.374l.997 1.335h.936l-1.123-1.406c.562-.14.874-.562.874-1.125 0-.703-.438-1.195-1.124-1.195h-1.745v3.726h.749l.062-1.335Zm-1.996-1.126c0 .282-.125.493-.436.493h-.999v-.985h.936c.312 0 .499.211.499.492Zm-2.183-1.265v3.726h.75v-1.266h.997c.685 0 1.184-.49 1.184-1.265 0-.703-.436-1.265-1.122-1.265l-1.809.07Zm-1.122 3.726h.935l-1.31-1.898 1.31-1.828h-.935l-.81 1.195-.81-1.195h-.936l1.31 1.828-1.31 1.829h.935l.81-1.196.81 1.265Zm-2.806-2.953v-.773H7.8v3.726h2.62v-.773h-1.87v-.773h1.807v-.773H8.548v-.704h1.871v.07Zm15.153-4.5 1.31 2.25h.935V8h-.749v2.46l-.186-.351L25.697 8H24.7v3.726h.75v-2.53l.123.28Zm-3.243-.07.25-.774.25.774.311.844h-1.123l.312-.844Zm1.31 2.32h.81L23.015 8h-.998l-1.433 3.726h.81l.312-.773h1.621l.312.773Zm-3.493 0 .312-.773h-.186c-.562 0-.874-.422-.874-1.055v-.07c0-.633.312-1.055.874-1.055h.81V8h-.873c-.997 0-1.559.773-1.559 1.828v.07c0 1.125.562 1.828 1.496 1.828Zm-2.805 0h.748V8.07h-.749v3.656Zm-1.622-2.953c.312 0 .437.211.437.422s-.125.423-.436.423h-.936v-.916l.935.07Zm-.934 1.618h.374l.997 1.336h.936l-1.123-1.407c.561-.14.873-.562.873-1.125 0-.703-.437-1.195-1.123-1.195h-1.744v3.726h.748l.061-1.335Zm-1.372-1.617V8h-2.62v3.726h2.62v-.773h-1.871v-.774h1.809v-.773h-1.81v-.705h1.872V8.774Zm-5.675 2.953h.686l.935-3.023v3.023h.75V8H8.86l-.75 2.53L7.365 8H6.115v3.726h.75V8.703l.872 3.023.001.001Zm-4.054-2.32.25-.775.249.774.312.844H3.372l.312-.844Zm1.31 2.32h.81L4.37 8h-.935L2 11.726h.81l.313-.773h1.62l.25.773Z"
            fill="#2F6DC9" />
    </g>
    <defs>
        <clipPath id="a">
            <rect width="32" height="24" rx="4" fill="#fff" />
        </clipPath>
    </defs>
</svg>