<svg width="32" height="32" fill="none" xmlns="http://www.w3.org/2000/svg">
    <path fill-rule="evenodd" clip-rule="evenodd"
        d="M24 5.333H8a2.667 2.667 0 0 0-2.667 2.666v16a2.667 2.667 0 0 0 2.666 2.667h16a2.667 2.667 0 0 0 2.667-2.667V8a2.667 2.667 0 0 0-2.667-2.666ZM8 2.666a5.333 5.333 0 0 0-5.334 5.333v16a5.333 5.333 0 0 0 5.333 5.334h16a5.333 5.333 0 0 0 5.334-5.334V8a5.333 5.333 0 0 0-5.334-5.333H8Z"
        fill="#fff" />
    <path fill-rule="evenodd" clip-rule="evenodd"
        d="M15.89 13.334a4 4 0 0 1 4-4h2.777v2.667H19.89c-.737 0-1.334.597-1.334 1.333v2.667h4.111v2.666h-4.11v8H15.89v-8h-2.556v-2.666h2.556v-2.667Z"
        fill="#fff" />
</svg>