<svg width="auto" height="auto" fill="none" xmlns="http://www.w3.org/2000/svg">
    <g clip-path="url(#a)" style="mix-blend-mode:luminosity">
        <path d="M0 0h32v24H0V0Z" fill="#fff" />
        <path
            d="M28.444 0H3.556C1.592 0 0 1.79 0 4v16c0 2.21 1.592 4 3.556 4h24.888C30.408 24 32 22.21 32 20V4c0-2.21-1.592-4-3.556-4Z"
            fill="#fff" />
        <path
            d="M28.443.5H3.554C1.836.5.444 2.067.444 4v16c0 1.933 1.392 3.5 3.11 3.5h24.89c1.718 0 3.11-1.567 3.11-3.5V4c0-1.933-1.392-3.5-3.11-3.5Z"
            stroke="#333" stroke-opacity=".07" stroke-width=".97" />
        <path
            d="M7.122 8.612a2.086 2.086 0 0 0-1.648-.58H3.29a.328.328 0 0 0-.317.274l-.972 5.765a.197.197 0 0 0 .197.219H3.29a.328.328 0 0 0 .295-.219l.24-1.572a.305.305 0 0 1 .306-.273h.71a2.302 2.302 0 0 0 2.565-2.184 1.703 1.703 0 0 0-.284-1.43Zm-1.386 1.517c-.12.808-.743.808-1.332.808h-.339l.23-1.517a.197.197 0 0 1 .185-.164h.153c.404 0 .797 0 .983.23a.743.743 0 0 1 .12.643ZM12.221 10.097H11.13a.217.217 0 0 0-.196.153v.316l-.077-.12a1.553 1.553 0 0 0-1.277-.448 2.49 2.49 0 0 0-2.414 2.184 2.086 2.086 0 0 0 .404 1.671 1.67 1.67 0 0 0 1.365.546 2.03 2.03 0 0 0 1.486-.622v.316a.197.197 0 0 0 .174.208h.972a.306.306 0 0 0 .317-.262l.578-3.724a.175.175 0 0 0-.24-.218Zm-2.73 3.155a.929.929 0 0 1-.72-.283 1.015 1.015 0 0 1-.175-.776 1.234 1.234 0 0 1 1.212-1.092.908.908 0 0 1 .72.306.863.863 0 0 1 .186.764 1.212 1.212 0 0 1-1.223 1.082ZM17.966 10.097h-1.092a.307.307 0 0 0-.262.142l-1.496 2.184-.633-2.13a.326.326 0 0 0-.306-.228h-1.092a.185.185 0 0 0-.185.162c-.004.03 0 .06.01.089l1.19 3.537-1.091 1.595a.187.187 0 0 0 .054.268c.03.018.064.027.098.027h1.092a.295.295 0 0 0 .262-.131l3.604-5.253a.182.182 0 0 0-.009-.17.184.184 0 0 0-.144-.092Z"
            fill="#253B80" />
        <path
            d="M23.208 8.611a2.096 2.096 0 0 0-1.65-.579h-2.26a.295.295 0 0 0-.294.273l-.928 5.766a.193.193 0 0 0 .049.153.2.2 0 0 0 .147.065h1.158a.218.218 0 0 0 .207-.196l.262-1.65a.316.316 0 0 1 .306-.272h.72a2.323 2.323 0 0 0 2.566-2.184 1.78 1.78 0 0 0-.283-1.376Zm-1.398 1.55c-.11.809-.732.809-1.332.809h-.339l.24-1.518a.175.175 0 0 1 .186-.164h.164c.404 0 .786 0 .983.23a.742.742 0 0 1 .098.61v.034ZM28.295 10.097h-1.092a.197.197 0 0 0-.197.153v.317l-.076-.12a1.517 1.517 0 0 0-1.267-.448 2.49 2.49 0 0 0-2.413 2.184 1.995 1.995 0 0 0 .404 1.67 1.639 1.639 0 0 0 1.354.546 2.061 2.061 0 0 0 1.496-.622v.317a.183.183 0 0 0 .046.145.187.187 0 0 0 .14.062h.971a.307.307 0 0 0 .306-.262l.535-3.723a.186.186 0 0 0-.207-.219Zm-2.72 3.156a.94.94 0 0 1-.73-.284.972.972 0 0 1-.165-.775 1.212 1.212 0 0 1 1.201-1.092.86.86 0 0 1 .907 1.092 1.19 1.19 0 0 1-1.212 1.059ZM30.797 8h-1.092a.175.175 0 0 0-.186.153l-.873 5.919a.187.187 0 0 0 .185.218h.928a.307.307 0 0 0 .306-.262l.917-5.82A.186.186 0 0 0 30.797 8Z"
            fill="#179BD7" />
    </g>
    <defs>
        <clipPath id="a">
            <rect width="32" height="24" rx="4" fill="#fff" />
        </clipPath>
    </defs>
</svg>