<svg width="20" height="21" fill="none" xmlns="http://www.w3.org/2000/svg">
    <path
        d="M14.541 19.458c-.942 0-1.933-.225-2.958-.659-1-.425-2.009-1.008-2.992-1.716a26.017 26.017 0 0 1-2.808-2.392 24.896 24.896 0 0 1-2.392-2.8c-.717-1-1.292-2-1.7-2.967-.433-1.033-.65-2.033-.65-2.975 0-.65.117-1.266.342-1.841A4.451 4.451 0 0 1 2.499 2.49c.642-.633 1.375-.95 2.159-.95.325 0 .658.075.941.208.325.15.6.375.8.675L8.333 5.15c.175.242.308.475.4.709.108.25.166.5.166.741 0 .317-.091.625-.266.917a3.334 3.334 0 0 1-.559.708l-.566.592a.408.408 0 0 0 .025.058c.1.175.3.475.683.925.408.467.792.892 1.175 1.284.492.483.9.866 1.283 1.183.475.4.784.6.967.692l-.017.041.609-.6c.258-.258.508-.45.75-.575.458-.283 1.041-.333 1.625-.091.216.091.45.216.7.391l2.766 1.967c.309.208.534.475.667.792.125.316.183.608.183.9 0 .4-.091.8-.266 1.175-.175.375-.392.7-.667 1-.475.525-.992.9-1.592 1.141-.575.234-1.2.359-1.858.359ZM4.658 2.79c-.459 0-.884.2-1.292.6-.383.358-.65.75-.817 1.175a3.646 3.646 0 0 0-.258 1.383c0 .775.183 1.617.55 2.484.375.883.9 1.8 1.567 2.716a23.046 23.046 0 0 0 2.258 2.65 23.464 23.464 0 0 0 2.658 2.267c.9.658 1.825 1.192 2.742 1.575 1.425.608 2.758.75 3.858.292.425-.175.8-.442 1.142-.825.192-.209.342-.434.467-.7.1-.209.15-.425.15-.642a.995.995 0 0 0-.092-.417.631.631 0 0 0-.233-.25l-2.767-1.966a2.394 2.394 0 0 0-.458-.259c-.184-.075-.259-.15-.542.025a1.9 1.9 0 0 0-.483.375l-.634.625a1.188 1.188 0 0 1-1.208.25l-.225-.1c-.342-.183-.742-.466-1.183-.841-.4-.342-.834-.742-1.359-1.259a29.055 29.055 0 0 1-1.241-1.35c-.392-.458-.675-.85-.85-1.175l-.1-.25c-.05-.191-.067-.3-.067-.416 0-.3.108-.567.317-.775l.625-.65c.166-.167.291-.325.375-.467a.534.534 0 0 0 .091-.283.775.775 0 0 0-.066-.267 2.39 2.39 0 0 0-.267-.442L5.383 3.141a.768.768 0 0 0-.309-.258 1.043 1.043 0 0 0-.416-.092Zm6.966 10.217-.133.566.225-.583c-.042-.008-.075 0-.092.017ZM15.417 8.626A.63.63 0 0 1 14.792 8c0-.3-.3-.925-.8-1.459-.492-.525-1.034-.833-1.492-.833a.63.63 0 0 1-.625-.625.63.63 0 0 1 .625-.625c.808 0 1.658.433 2.4 1.225.692.742 1.142 1.65 1.142 2.317a.63.63 0 0 1-.625.625ZM18.333 8.624A.63.63 0 0 1 17.708 8 5.21 5.21 0 0 0 12.5 2.791a.63.63 0 0 1-.625-.625.63.63 0 0 1 .625-.625c3.558 0 6.458 2.9 6.458 6.458a.63.63 0 0 1-.625.625Z"
        fill="#CBCBCB" />
</svg>