<svg width="32" height="32" fill="none" xmlns="http://www.w3.org/2000/svg">
    <path fill-rule="evenodd" clip-rule="evenodd"
        d="m7.073 5.164.864 1.614c2.043 3.814 4.96 4.984 6.777 5.214v-.683a5.976 5.976 0 1 1 11.953 0v2.024C26.667 22.172 20.4 28 13.19 28c-3.168 0-5.407-1.034-6.865-2.114a9.257 9.257 0 0 1-1.59-1.49 7.013 7.013 0 0 1-.504-.68 3.372 3.372 0 0 1-.033-.054l-.011-.018-.004-.007-.002-.004-.001-.001s0-.002 1.153-.67l-1.154.669-1.158-2.002h2.312c1.472 0 2.339-.005 3.19-.228.813-.213 1.7-.653 3.048-1.702l1.637 2.105c-1.508 1.173-2.72 1.839-4.008 2.176-.236.062-.471.112-.707.152 1.053.635 2.579 1.201 4.697 1.201 5.647 0 10.81-4.542 10.81-12V11.31a3.31 3.31 0 0 0-6.619 0v3.196l-1.162.15c-2.122.276-6.314-.523-9.428-4.712a3.328 3.328 0 0 0-.083 1.305c.139 1.03.78 2.201 2.24 3.21l-1.516 2.194c-1.968-1.36-3.112-3.153-3.367-5.049-.254-1.893.402-3.737 1.737-5.121l1.27-1.318Z"
        fill="#fff" />
    <path fill-rule="evenodd" clip-rule="evenodd"
        d="M7.28 17.172c.772-.11 1.462-.525 1.786-.76l1.567 2.157c-.484.352-1.589 1.044-2.973 1.243-1.478.212-3.206-.157-4.658-1.838L5.02 16.23c.795.921 1.583 1.04 2.26.942ZM26.381 7.31c.156-.189.269-.484.267-.988l2.667-.01c.003.896-.2 1.872-.875 2.694-.679.824-1.685 1.31-2.926 1.523l-.451-2.628c.822-.141 1.165-.404 1.318-.59Z"
        fill="#fff" />
</svg>