<svg width="20" height="20" fill="none" xmlns="http://www.w3.org/2000/svg">
    <path
        d="M10 17.708H5.832c-3.042 0-4.792-1.75-4.792-4.792V7.083c0-3.042 1.75-4.792 4.792-4.792h8.333c3.042 0 4.792 1.75 4.792 4.792v2.5a.63.63 0 0 1-.625.625.63.63 0 0 1-.625-.625v-2.5c0-2.384-1.159-3.542-3.542-3.542H5.833c-2.384 0-3.542 1.158-3.542 3.542v5.833c0 2.383 1.158 3.542 3.542 3.542h4.166a.63.63 0 0 1 .625.625.63.63 0 0 1-.625.625Z"
        fill="#CBCBCB" />
    <path
        d="M9.999 10.724c-.7 0-1.408-.217-1.95-.658L5.441 7.982a.623.623 0 0 1-.1-.875.63.63 0 0 1 .875-.1l2.608 2.084c.633.508 1.708.508 2.342 0l2.608-2.084a.616.616 0 0 1 .875.1.615.615 0 0 1-.1.875l-2.608 2.084c-.534.441-1.242.658-1.942.658ZM13.184 18.15c-.316 0-.616-.117-.833-.334a1.185 1.185 0 0 1-.317-1.025l.159-1.125c.041-.292.216-.642.425-.85l2.95-2.95c.4-.4.791-.608 1.216-.65.517-.05 1.034.167 1.517.65.483.483.7.992.65 1.517-.042.416-.258.816-.65 1.216l-2.95 2.95a1.65 1.65 0 0 1-.85.425l-1.125.159c-.067.008-.125.016-.192.016Zm3.742-5.692H16.9c-.117.008-.275.116-.45.291L13.5 15.7a.317.317 0 0 0-.067.142l-.15 1.042 1.042-.15a.464.464 0 0 0 .142-.075l2.95-2.95c.175-.184.283-.334.291-.45.017-.167-.15-.367-.291-.509-.134-.133-.325-.291-.492-.291Z"
        fill="#CBCBCB" />
    <path
        d="M17.434 15.208a.537.537 0 0 1-.167-.025 3.314 3.314 0 0 1-2.283-2.284.633.633 0 0 1 .433-.775.62.62 0 0 1 .767.434 2.054 2.054 0 0 0 1.416 1.416.63.63 0 0 1-.166 1.234Z"
        fill="#CBCBCB" />
</svg>