<svg width="40" height="34" fill="none" xmlns="http://www.w3.org/2000/svg">
    <path
        d="M34.443 23.1H5.558a2.446 2.446 0 0 1-2.447-2.447V5.558A2.446 2.446 0 0 1 5.558 3.11h28.884a2.446 2.446 0 0 1 2.447 2.447v15.095a2.446 2.446 0 0 1-2.446 2.446Z"
        fill="#AECDFB" />
    <path
        d="M24.019 15.174H9.255a.445.445 0 0 1 0-.889h14.764a.444.444 0 1 1 0 .889ZM23.008 11.022H5.741a.445.445 0 0 1 0-.89h17.267a.444.444 0 1 1 0 .89Z"
        fill="#0C0C0C" />
    <path
        d="M11.272 26.21h-8.83A2.445 2.445 0 0 1 0 23.768V2.442A2.445 2.445 0 0 1 2.442 0h35.116A2.445 2.445 0 0 1 40 2.442v1.716a.444.444 0 1 1-.889 0V2.442c0-.857-.696-1.553-1.553-1.553H2.442c-.857 0-1.553.696-1.553 1.553v21.326c0 .856.696 1.553 1.553 1.553h8.83a.444.444 0 1 1 0 .89ZM20.364 26.211h-3.87a.444.444 0 1 1 0-.889h3.87a.444.444 0 1 1 0 .89Z"
        fill="#0C0C0C" />
    <path
        d="M37.558 26.21H24.234a.444.444 0 1 1 0-.889h13.324c.857 0 1.553-.696 1.553-1.553v-1.867H4.567a.444.444 0 1 1 0-.89h34.989c.245 0 .444.2.444.445v2.312a2.445 2.445 0 0 1-2.442 2.442Z"
        fill="#0C0C0C" />
    <path
        d="M29.137 33.634H11.589a.444.444 0 0 1-.444-.445 3.225 3.225 0 0 1 3.22-3.22h.318l1.386-4.339a.444.444 0 1 1 .847.271L15.43 30.55a.445.445 0 0 1-.424.308h-.642a2.336 2.336 0 0 0-2.29 1.888H28.65a2.336 2.336 0 0 0-2.29-1.888h-.64a.444.444 0 0 1-.424-.308L23.81 25.9a.444.444 0 0 1 .847-.27l1.386 4.337h.317a3.225 3.225 0 0 1 3.221 3.221.444.444 0 0 1-.444.445ZM20.815 23.774h-.902a.444.444 0 1 1 0-.89h.902a.444.444 0 1 1 0 .89ZM35.687 14.374a.424.424 0 0 1-.196-.049l-2.786-1.464-2.786 1.464a.42.42 0 0 1-.613-.445l.532-3.102-2.253-2.197a.422.422 0 0 1 .234-.72l3.114-.453 1.394-2.822c.141-.289.615-.289.757 0l1.393 2.822 3.114.452a.424.424 0 0 1 .235.721l-2.254 2.197.532 3.102a.424.424 0 0 1-.417.494Zm-6.9-5.8 1.8 1.754c.1.097.145.237.121.374l-.425 2.477 2.225-1.17a.421.421 0 0 1 .394 0l2.224 1.17-.424-2.477a.423.423 0 0 1 .121-.374l1.8-1.754-2.487-.361a.422.422 0 0 1-.318-.231l-1.113-2.255-1.113 2.254a.422.422 0 0 1-.318.23l-2.487.363Z"
        fill="#0C0C0C" />
</svg>