<svg width="40" height="46" fill="none" xmlns="http://www.w3.org/2000/svg">
    <path
        d="M20 35.716c5.912 0 10.704-4.792 10.704-10.704 0-5.911-4.792-10.703-10.704-10.703-5.911 0-10.703 4.792-10.703 10.703 0 5.912 4.792 10.704 10.703 10.704Z"
        fill="#AECDFB" />
    <path
        d="M20 39.28a14.27 14.27 0 0 1-9.148-3.32.5.5 0 0 1 .642-.767A13.274 13.274 0 0 0 20 38.28c7.31 0 13.257-5.947 13.257-13.257S27.31 11.766 20 11.766c-7.143 0-12.985 5.678-13.248 12.757h2.173a.5.5 0 1 1 0 1H6.242a.5.5 0 0 1-.5-.5c0-7.861 6.396-14.257 14.258-14.257 7.861 0 14.257 6.396 14.257 14.257 0 7.862-6.396 14.258-14.257 14.258Z"
        fill="#0C0C0C" />
    <path
        d="M20 45.024c-11.028 0-20-8.973-20-20A19.935 19.935 0 0 1 16.198 5.39V3.98h-2.174a.5.5 0 0 1-.5-.5c0-1.92 1.56-3.48 3.48-3.48h5.993c1.919 0 3.48 1.56 3.48 3.48a.5.5 0 0 1-.5.5H23.8v1.41A19.933 19.933 0 0 1 40 25.024c0 11.027-8.972 20-20 20ZM17.199 5.749l.002.015a.497.497 0 0 1-.412.535A18.938 18.938 0 0 0 1.001 25.024c0 10.476 8.523 19 18.999 19 10.477 0 19-8.524 19-19A18.937 18.937 0 0 0 23.205 6.299.5.5 0 0 1 22.8 5.7V3.48a.5.5 0 0 1 .5-.5h2.124A2.484 2.484 0 0 0 22.997 1h-5.994c-1.195 0-2.196.851-2.428 1.98H16.7a.5.5 0 0 1 .5.5v2.269Z"
        fill="#0C0C0C" />
    <path
        d="M18.881 30.99h-6.607a.5.5 0 0 1-.374-.833l5.8-6.523a2.696 2.696 0 0 0-.222-3.802 2.697 2.697 0 0 0-3.803.223.5.5 0 0 1-.747-.665 3.698 3.698 0 0 1 5.214-.306 3.698 3.698 0 0 1 .306 5.215l-5.06 5.69h5.493a.5.5 0 1 1 0 1ZM25.934 30.99a.5.5 0 0 1-.5-.5V28.5h-5.277a.5.5 0 0 1-.426-.764l5.777-9.348a.5.5 0 0 1 .926.263V27.5h1.735a.5.5 0 1 1 0 1h-1.735v1.99a.5.5 0 0 1-.5.5Zm-4.88-3.49h4.38v-7.087l-4.38 7.086ZM31.538 25.524h-.463a.5.5 0 1 1 0-1h.463a.5.5 0 1 1 0 1ZM20 14.449a.5.5 0 0 1-.5-.5v-.464a.5.5 0 0 1 1 0v.463a.5.5 0 0 1-.5.5ZM20 37.062a.5.5 0 0 1-.5-.5v-.464a.5.5 0 1 1 1 0v.464a.5.5 0 0 1-.5.5Z"
        fill="#0C0C0C" />
</svg>