<svg width="40" height="44" fill="none" xmlns="http://www.w3.org/2000/svg">
    <path d="M20 29.214a7.425 7.425 0 1 0 0-14.85 7.425 7.425 0 0 0 0 14.85Z" fill="#AECDFB" />
    <path
        d="M20 43.77a.481.481 0 0 1-.168-.03C7.772 39.31 1.1 28.078.001 10.355a.487.487 0 0 1 .375-.504C5.89 8.57 10.77 6.558 14.885 3.872a.486.486 0 1 1 .531.815C11.308 7.369 6.46 9.393.998 10.704c1.16 17.302 7.432 27.813 19.169 32.124a.486.486 0 0 1-.167.943Z"
        fill="#0C0C0C" />
    <path
        d="M20 43.77a.488.488 0 0 1-.486-.486V31.527a.486.486 0 1 1 .972 0V42.58C31.802 38.12 37.864 27.68 39.001 10.704c-7.427-1.783-13.648-4.848-18.515-9.12v6.665a.487.487 0 0 1-.972 0V.486a.486.486 0 0 1 .818-.355c4.939 4.622 11.43 7.893 19.292 9.72.231.054.39.267.375.504-1.099 17.723-7.77 28.956-19.831 33.385a.49.49 0 0 1-.168.03Z"
        fill="#0C0C0C" />
    <path
        d="M20 32.014c-2.378 0-4.689-.84-6.51-2.362a.486.486 0 1 1 .625-.746A9.182 9.182 0 0 0 20 31.042c5.056 0 9.17-4.114 9.17-9.17 0-5.058-4.114-9.173-9.17-9.173-5.057 0-9.172 4.114-9.172 9.172a.487.487 0 0 1-.973 0c0-5.594 4.551-10.144 10.145-10.144 5.593 0 10.143 4.55 10.143 10.144 0 5.593-4.55 10.143-10.143 10.143Z"
        fill="#0C0C0C" />
    <path
        d="M19.377 25.615a.486.486 0 0 1-.365-.165l-3.162-3.593a.486.486 0 1 1 .73-.643l2.794 3.175 5.332-6.16a.487.487 0 0 1 .735.636l-5.697 6.582a.485.485 0 0 1-.365.168h-.002Z"
        fill="#0C0C0C" />
</svg>