<svg width="72" height="72" viewBox="0 0 72 72" fill="none" xmlns="http://www.w3.org/2000/svg">
<rect x="1.5" y="1.5" width="69" height="69" rx="34.5" stroke="#0C68F4" stroke-width="3"/>
<path d="M36 49C31.32 49 27.5 45.18 27.5 40.5C27.5 39.68 28.18 39 29 39C29.82 39 30.5 39.68 30.5 40.5C30.5 43.54 32.96 46 36 46C39.04 46 41.5 43.54 41.5 40.5C41.5 39.68 42.18 39 43 39C43.82 39 44.5 39.68 44.5 40.5C44.5 45.18 40.68 49 36 49Z" fill="#0C68F4"/>
<path d="M22.3798 24.7599C21.9998 24.7599 21.5998 24.5999 21.3198 24.3199C20.7398 23.7399 20.7398 22.7799 21.3198 22.1999L28.5798 14.9399C29.1598 14.3599 30.1198 14.3599 30.6998 14.9399C31.2798 15.5199 31.2798 16.4799 30.6998 17.0599L23.4398 24.3199C23.1398 24.5999 22.7598 24.7599 22.3798 24.7599Z" fill="#0C68F4"/>
<path d="M49.6202 24.7599C49.2402 24.7599 48.8602 24.6199 48.5602 24.3199L41.3002 17.0599C40.7202 16.4799 40.7202 15.5199 41.3002 14.9399C41.8802 14.3599 42.8402 14.3599 43.4202 14.9399L50.6802 22.1999C51.2602 22.7799 51.2602 23.7399 50.6802 24.3199C50.4002 24.5999 50.0002 24.7599 49.6202 24.7599Z" fill="#0C68F4"/>
<path d="M52.42 33.2002C52.28 33.2002 52.14 33.2002 52 33.2002H51.54H20C18.6 33.2202 17 33.2202 15.84 32.0602C14.92 31.1602 14.5 29.7602 14.5 27.7002C14.5 22.2002 18.52 22.2002 20.44 22.2002H51.56C53.48 22.2002 57.5 22.2002 57.5 27.7002C57.5 29.7802 57.08 31.1602 56.16 32.0602C55.12 33.1002 53.72 33.2002 52.42 33.2002ZM20.44 30.2002H52.02C52.92 30.2202 53.76 30.2202 54.04 29.9402C54.18 29.8002 54.48 29.3202 54.48 27.7002C54.48 25.4402 53.92 25.2002 51.54 25.2002H20.44C18.06 25.2002 17.5 25.4402 17.5 27.7002C17.5 29.3202 17.82 29.8002 17.94 29.9402C18.22 30.2002 19.08 30.2002 19.96 30.2002H20.44Z" fill="#0C68F4"/>
<path d="M41.7795 57.5005H29.7195C22.5595 57.5005 20.9595 53.2405 20.3395 49.5405L17.5195 32.2405C17.3795 31.4205 17.9395 30.6605 18.7595 30.5205C19.5595 30.3805 20.3395 30.9405 20.4795 31.7605L23.2995 49.0405C23.8795 52.5805 25.0795 54.5005 29.7195 54.5005H41.7795C46.9195 54.5005 47.4995 52.7005 48.1595 49.2205L51.5195 31.7205C51.6795 30.9005 52.4595 30.3605 53.2795 30.5405C54.0995 30.7005 54.6195 31.4805 54.4595 32.3005L51.0995 49.8005C50.3195 53.8605 49.0195 57.5005 41.7795 57.5005Z" fill="#0C68F4"/>
</svg>
