<svg width="48" height="48" viewBox="0 0 48 48" fill="none" xmlns="http://www.w3.org/2000/svg">
<rect width="48" height="48" rx="24" fill="#78ABF9"/>
<path d="M24.0007 32.6667C20.8807 32.6667 18.334 30.12 18.334 27C18.334 26.4533 18.7873 26 19.334 26C19.8807 26 20.334 26.4533 20.334 27C20.334 29.0267 21.974 30.6667 24.0007 30.6667C26.0273 30.6667 27.6673 29.0267 27.6673 27C27.6673 26.4533 28.1207 26 28.6673 26C29.214 26 29.6673 26.4533 29.6673 27C29.6673 30.12 27.1207 32.6667 24.0007 32.6667Z" fill="white"/>
<path d="M14.9205 16.5066C14.6672 16.5066 14.4005 16.3999 14.2138 16.2133C13.8272 15.8266 13.8272 15.1866 14.2138 14.7999L19.0538 9.95992C19.4405 9.57326 20.0805 9.57326 20.4672 9.95992C20.8538 10.3466 20.8538 10.9866 20.4672 11.3733L15.6272 16.2133C15.4272 16.3999 15.1738 16.5066 14.9205 16.5066Z" fill="white"/>
<path d="M33.0808 16.5066C32.8275 16.5066 32.5741 16.4133 32.3741 16.2133L27.5341 11.3733C27.1475 10.9866 27.1475 10.3466 27.5341 9.95992C27.9208 9.57326 28.5608 9.57326 28.9475 9.95992L33.7875 14.7999C34.1741 15.1866 34.1741 15.8266 33.7875 16.2133C33.6008 16.3999 33.3341 16.5066 33.0808 16.5066Z" fill="white"/>
<path d="M34.946 22.1331C34.8527 22.1331 34.7593 22.1331 34.666 22.1331H34.3594H13.3327C12.3993 22.1465 11.3327 22.1465 10.5593 21.3731C9.94602 20.7731 9.66602 19.8398 9.66602 18.4665C9.66602 14.7998 12.346 14.7998 13.626 14.7998H34.3727C35.6527 14.7998 38.3327 14.7998 38.3327 18.4665C38.3327 19.8531 38.0527 20.7731 37.4393 21.3731C36.746 22.0665 35.8127 22.1331 34.946 22.1331ZM13.626 20.1331H34.6794C35.2794 20.1465 35.8394 20.1465 36.026 19.9598C36.1194 19.8665 36.3193 19.5465 36.3193 18.4665C36.3193 16.9598 35.946 16.7998 34.3594 16.7998H13.626C12.0393 16.7998 11.666 16.9598 11.666 18.4665C11.666 19.5465 11.8793 19.8665 11.9593 19.9598C12.146 20.1331 12.7193 20.1331 13.306 20.1331H13.626Z" fill="white"/>
<path d="M27.8537 38.333H19.8137C15.0403 38.333 13.9737 35.493 13.5603 33.0263L11.6803 21.493C11.587 20.9463 11.9603 20.4397 12.507 20.3463C13.0403 20.253 13.5603 20.6263 13.6537 21.173L15.5337 32.693C15.9203 35.053 16.7203 36.333 19.8137 36.333H27.8537C31.2803 36.333 31.667 35.133 32.107 32.813L34.347 21.1463C34.4537 20.5997 34.9737 20.2397 35.5203 20.3597C36.067 20.4663 36.4137 20.9863 36.307 21.533L34.067 33.1997C33.547 35.9063 32.6803 38.333 27.8537 38.333Z" fill="white"/>
</svg>
