<svg width="48" height="48" viewBox="0 0 48 48" fill="none" xmlns="http://www.w3.org/2000/svg">
<rect width="48" height="48" rx="24" fill="#9E9E9E"/>
<path d="M25.3327 27.667H10.666C10.1193 27.667 9.66602 27.2137 9.66602 26.667V16.0003C9.66602 12.507 12.506 9.66699 15.9993 9.66699H27.9993C28.546 9.66699 28.9993 10.1203 28.9993 10.667V24.0003C28.9993 26.027 27.3593 27.667 25.3327 27.667ZM11.666 25.667H25.3327C26.2527 25.667 26.9993 24.9203 26.9993 24.0003V11.667H15.9993C13.6127 11.667 11.666 13.6137 11.666 16.0003V25.667Z" fill="white"/>
<path d="M33.3327 35.667H31.9993C31.4527 35.667 30.9993 35.2137 30.9993 34.667C30.9993 33.747 30.2527 33.0003 29.3327 33.0003C28.4127 33.0003 27.666 33.747 27.666 34.667C27.666 35.2137 27.2127 35.667 26.666 35.667H21.3327C20.786 35.667 20.3327 35.2137 20.3327 34.667C20.3327 33.747 19.586 33.0003 18.666 33.0003C17.746 33.0003 16.9993 33.747 16.9993 34.667C16.9993 35.2137 16.546 35.667 15.9993 35.667H14.666C11.906 35.667 9.66602 33.427 9.66602 30.667V26.667C9.66602 26.1203 10.1193 25.667 10.666 25.667H25.3327C26.2527 25.667 26.9993 24.9203 26.9993 24.0003V14.667C26.9993 14.1203 27.4527 13.667 27.9993 13.667H30.4527C31.7727 13.667 32.986 14.3737 33.6394 15.5203L35.9194 19.507C36.0927 19.8137 36.0927 20.2003 35.9194 20.507C35.746 20.8137 35.4127 21.0003 35.0527 21.0003H33.3327C33.146 21.0003 32.9993 21.147 32.9993 21.3337V25.3337C32.9993 25.5203 33.146 25.667 33.3327 25.667H37.3327C37.8793 25.667 38.3327 26.1203 38.3327 26.667V30.667C38.3327 33.427 36.0927 35.667 33.3327 35.667ZM32.866 33.667H33.3327C34.986 33.667 36.3327 32.3203 36.3327 30.667V27.667H33.3327C32.0527 27.667 30.9993 26.6137 30.9993 25.3337V21.3337C30.9993 20.0537 32.0393 19.0003 33.3327 19.0003L31.906 16.507C31.6127 15.987 31.0527 15.667 30.4527 15.667H28.9993V24.0003C28.9993 26.027 27.3593 27.667 25.3327 27.667H11.666V30.667C11.666 32.3203 13.0127 33.667 14.666 33.667H15.1327C15.5727 32.1337 16.986 31.0003 18.666 31.0003C20.346 31.0003 21.7593 32.1337 22.1993 33.667H25.8127C26.2527 32.1337 27.666 31.0003 29.346 31.0003C31.026 31.0003 32.426 32.1337 32.866 33.667Z" fill="white"/>
<path d="M18.6667 38.3333C16.64 38.3333 15 36.6933 15 34.6667C15 32.64 16.64 31 18.6667 31C20.6933 31 22.3333 32.64 22.3333 34.6667C22.3333 36.6933 20.6933 38.3333 18.6667 38.3333ZM18.6667 33C17.7467 33 17 33.7467 17 34.6667C17 35.5867 17.7467 36.3333 18.6667 36.3333C19.5867 36.3333 20.3333 35.5867 20.3333 34.6667C20.3333 33.7467 19.5867 33 18.6667 33Z" fill="white"/>
<path d="M29.3327 38.3333C27.306 38.3333 25.666 36.6933 25.666 34.6667C25.666 32.64 27.306 31 29.3327 31C31.3593 31 32.9993 32.64 32.9993 34.6667C32.9993 36.6933 31.3593 38.3333 29.3327 38.3333ZM29.3327 33C28.4127 33 27.666 33.7467 27.666 34.6667C27.666 35.5867 28.4127 36.3333 29.3327 36.3333C30.2527 36.3333 30.9993 35.5867 30.9993 34.6667C30.9993 33.7467 30.2527 33 29.3327 33Z" fill="white"/>
<path d="M37.3333 27.6667H33.3333C32.0533 27.6667 31 26.6133 31 25.3333V21.3333C31 20.0533 32.0533 19 33.3333 19H35.0533C35.4133 19 35.7467 19.1867 35.92 19.5067L38.2 23.5067C38.28 23.6533 38.3333 23.8267 38.3333 24V26.6667C38.3333 27.2133 37.88 27.6667 37.3333 27.6667ZM33.3333 21C33.1467 21 33 21.1467 33 21.3333V25.3333C33 25.52 33.1467 25.6667 33.3333 25.6667H36.3333V24.2667L34.4667 21H33.3333Z" fill="white"/>
</svg>
