<svg width="60" height="60" viewBox="0 0 60 60" fill="none" xmlns="http://www.w3.org/2000/svg">
<g clip-path="url(#clip0_186_8993)">
<rect width="60" height="60" rx="30" fill="#F9F9F9"/>
<path d="M30.3002 33.8252C30.2502 33.8252 30.1752 33.8252 30.1252 33.8252C30.0502 33.8252 29.9502 33.8252 29.8752 33.8252C24.2002 33.6502 19.9502 29.2252 19.9502 23.7752C19.9502 18.2252 24.4752 13.7002 30.0252 13.7002C35.5752 13.7002 40.1002 18.2252 40.1002 23.7752C40.0752 29.2502 35.8002 33.6502 30.3752 33.8252C30.3252 33.8252 30.3252 33.8252 30.3002 33.8252ZM30.0002 17.4252C26.5002 17.4252 23.6752 20.2752 23.6752 23.7502C23.6752 27.1752 26.3502 29.9502 29.7502 30.0752C29.8252 30.0502 30.0752 30.0502 30.3252 30.0752C33.6752 29.9002 36.3002 27.1502 36.3252 23.7502C36.3252 20.2752 33.5002 17.4252 30.0002 17.4252Z" fill="#B4B4B4"/>
<path d="M30.0001 56.8748C23.2751 56.8748 16.8501 54.3748 11.8751 49.8248C11.4251 49.4248 11.2251 48.8248 11.2751 48.2498C11.6001 45.2748 13.4501 42.4998 16.5251 40.4498C23.9751 35.4998 36.0501 35.4998 43.4751 40.4498C46.5501 42.5248 48.4001 45.2748 48.7251 48.2498C48.8001 48.8498 48.5751 49.4248 48.1251 49.8248C43.1501 54.3748 36.7251 56.8748 30.0001 56.8748ZM15.2001 47.7498C19.3501 51.2248 24.5751 53.1248 30.0001 53.1248C35.4251 53.1248 40.6501 51.2248 44.8001 47.7498C44.3501 46.2248 43.1501 44.7498 41.3751 43.5498C35.2251 39.4498 24.8001 39.4498 18.6001 43.5498C16.8251 44.7498 15.6501 46.2248 15.2001 47.7498Z" fill="#B4B4B4"/>
<path d="M30 56.875C15.175 56.875 3.125 44.825 3.125 30C3.125 15.175 15.175 3.125 30 3.125C44.825 3.125 56.875 15.175 56.875 30C56.875 44.825 44.825 56.875 30 56.875ZM30 6.875C17.25 6.875 6.875 17.25 6.875 30C6.875 42.75 17.25 53.125 30 53.125C42.75 53.125 53.125 42.75 53.125 30C53.125 17.25 42.75 6.875 30 6.875Z" fill="#B4B4B4"/>
</g>
<rect x="0.5" y="0.5" width="59" height="59" rx="29.5" stroke="#F6F6F6"/>
<defs>
<clipPath id="clip0_186_8993">
<rect width="60" height="60" rx="30" fill="white"/>
</clipPath>
</defs>
</svg>
