<svg width="32" height="32" fill="none" xmlns="http://www.w3.org/2000/svg">
    <path
        d="M28.927 10.64c-.062-1.385-.286-2.332-.603-3.16a6.34 6.34 0 0 0-1.498-2.3 6.378 6.378 0 0 0-2.299-1.498c-.827-.323-1.773-.541-3.157-.604C19.981 3.016 19.54 3 16.013 3c-3.532 0-3.974.016-5.357.078-1.384.063-2.33.286-3.157.604A6.309 6.309 0 0 0 5.195 5.18a6.382 6.382 0 0 0-1.498 2.3c-.317.827-.541 1.774-.603 3.159-.063 1.39-.078 1.832-.078 5.36 0 3.534.015 3.976.078 5.36.062 1.385.286 2.332.603 3.16a6.339 6.339 0 0 0 1.498 2.3 6.268 6.268 0 0 0 2.299 1.498c.827.323 1.773.541 3.157.604 1.388.062 1.83.078 5.357.078 3.531 0 3.973-.016 5.357-.078 1.383-.063 2.33-.286 3.157-.604a6.336 6.336 0 0 0 2.299-1.498 6.383 6.383 0 0 0 1.498-2.3c.322-.828.54-1.775.603-3.16.062-1.39.078-1.832.078-5.36 0-3.528-.01-3.976-.073-5.36Zm-2.335 10.616c-.057 1.27-.27 1.962-.447 2.415a4.05 4.05 0 0 1-.978 1.499c-.458.458-.89.733-1.498.978-.458.177-1.15.39-2.413.448-1.368.062-1.78.078-5.253.078-3.475 0-3.886-.016-5.253-.078-1.27-.058-1.961-.27-2.414-.448a4.046 4.046 0 0 1-1.498-.978 4.137 4.137 0 0 1-.977-1.5c-.177-.457-.39-1.15-.448-2.414-.062-1.369-.078-1.78-.078-5.256s.016-3.887.078-5.256c.058-1.27.27-1.962.448-2.415a4.05 4.05 0 0 1 .977-1.499c.458-.458.89-.734 1.498-.978.458-.177 1.15-.39 2.414-.448 1.367-.062 1.778-.078 5.253-.078 3.474 0 3.885.016 5.253.078 1.269.058 1.96.27 2.413.448.603.234 1.04.52 1.498.978.457.458.733.89.978 1.5.177.457.39 1.15.447 2.414.062 1.369.078 1.78.078 5.256s-.02 3.887-.078 5.256Z"
        fill="#fff" />
    <path
        d="M16.002 9.318A6.678 6.678 0 0 0 9.324 16a6.678 6.678 0 1 0 13.356 0 6.674 6.674 0 0 0-6.678-6.682Zm0 11.018A4.334 4.334 0 0 1 11.67 16a4.334 4.334 0 0 1 4.332-4.336A4.334 4.334 0 0 1 20.335 16a4.334 4.334 0 0 1-4.333 4.336ZM22.941 10.619a1.56 1.56 0 1 0 0-3.122 1.56 1.56 0 0 0 0 3.122Z"
        fill="#fff" />
    <path
        d="M3 16c0 3.534.016 3.976.078 5.36.062 1.385.286 2.332.603 3.16a6.339 6.339 0 0 0 1.498 2.3 6.335 6.335 0 0 0 2.3 1.498c.826.323 1.773.541 3.156.604 1.389.062 1.83.078 5.357.078 3.532 0 3.974-.016 5.357-.078 1.384-.063 2.33-.286 3.157-.604a6.336 6.336 0 0 0 2.3-1.498 6.34 6.34 0 0 0 1.497-2.3c.322-.828.541-1.775.603-3.16.063-1.39.078-1.832.078-5.36 0-3.534-.015-3.976-.078-5.36-.062-1.385-.286-2.332-.603-3.16a6.34 6.34 0 0 0-1.498-2.3 6.207 6.207 0 0 0-2.293-1.498c-.828-.323-1.774-.541-3.157-.604C19.965 3.016 19.524 3 15.997 3c-3.531 0-3.973.016-5.357.078-1.383.063-2.33.286-3.157.604A6.334 6.334 0 0 0 5.184 5.18a6.382 6.382 0 0 0-1.497 2.3c-.323.827-.547 1.774-.609 3.159C3.016 12.024 3 12.466 3 16Zm2.346 0c0-3.471.015-3.887.078-5.256.057-1.27.27-1.962.447-2.415a4.05 4.05 0 0 1 .978-1.499c.457-.458.89-.734 1.498-.978.457-.177 1.15-.39 2.413-.448 1.368-.062 1.779-.078 5.253-.078s3.885.016 5.253.078c1.27.058 1.96.27 2.413.448.604.234 1.04.52 1.498.978.458.458.734.89.978 1.5.177.457.39 1.15.447 2.414.063 1.369.078 1.78.078 5.256s-.015 3.887-.078 5.256c-.057 1.27-.27 1.962-.447 2.415a4.048 4.048 0 0 1-.978 1.499c-.457.458-.89.733-1.498.978-.457.177-1.15.39-2.413.448-1.368.062-1.779.078-5.253.078s-3.885-.016-5.253-.078c-1.27-.058-1.96-.27-2.413-.448a4.046 4.046 0 0 1-1.498-.978 4.137 4.137 0 0 1-.978-1.5c-.177-.457-.39-1.15-.447-2.414-.068-1.369-.078-1.785-.078-5.256Z"
        fill="#fff" />
</svg>