<svg width="20" height="20" fill="none" xmlns="http://www.w3.org/2000/svg">
    <path
        d="M10 11.809a3.22 3.22 0 1 1 0-6.442 3.22 3.22 0 1 1 0 6.442Zm0-5.192a1.974 1.974 0 1 0 0 3.95 1.974 1.974 0 1 0 0-3.95Z"
        fill="#CBCBCB" />
    <path
        d="M10 18.966a4.976 4.976 0 0 1-3.442-1.392c-2.459-2.366-5.175-6.141-4.15-10.633.925-4.075 4.483-5.9 7.591-5.9h.009c3.108 0 6.666 1.825 7.591 5.908 1.017 4.492-1.7 8.259-4.158 10.625A4.976 4.976 0 0 1 10 18.966Zm0-16.675c-2.426 0-5.542 1.292-6.367 4.925-.9 3.925 1.566 7.308 3.8 9.45a3.688 3.688 0 0 0 5.141 0c2.225-2.142 4.692-5.525 3.809-9.45-.834-3.633-3.959-4.925-6.384-4.925Z"
        fill="#CBCBCB" />
</svg>