<svg width="32" height="24" fill="none" xmlns="http://www.w3.org/2000/svg">
    <g clip-path="url(#a)" style="mix-blend-mode:luminosity">
        <path d="M0 0h32v24H0V0Z" fill="#fff" />
        <path
            d="M28.444 0H3.556C1.592 0 0 1.79 0 4v16c0 2.21 1.592 4 3.556 4h24.888C30.408 24 32 22.21 32 20V4c0-2.21-1.592-4-3.556-4Z"
            fill="#fff" />
        <path
            d="M28.443.5H3.554C1.836.5.444 2.067.444 4v16c0 1.933 1.392 3.5 3.11 3.5h24.89c1.718 0 3.11-1.567 3.11-3.5V4c0-1.933-1.392-3.5-3.11-3.5Z"
            stroke="#333" stroke-opacity=".07" stroke-width=".97" />
        <path
            d="M12.493 17.646c3.034 0 5.493-2.607 5.493-5.823S15.527 6 12.493 6C9.46 6 7 8.607 7 11.823s2.46 5.823 5.493 5.823Z"
            fill="#D82F2C" />
        <path
            d="M19.817 17.646c3.034 0 5.494-2.607 5.494-5.823S22.85 6 19.817 6c-3.033 0-5.493 2.607-5.493 5.823s2.46 5.823 5.493 5.823Z"
            fill="#EAA33F" />
        <path fill-rule="evenodd" clip-rule="evenodd"
            d="M16.155 16.163c1.124-1.066 1.831-2.616 1.831-4.34 0-1.725-.707-3.274-1.83-4.34-1.124 1.066-1.832 2.615-1.832 4.34 0 1.724.707 3.274 1.831 4.34Z"
            fill="#ED6A2D" />
    </g>
    <defs>
        <clipPath id="a">
            <rect width="32" height="24" rx="4" fill="#fff" />
        </clipPath>
    </defs>
</svg>