<svg width="55" height="40" viewBox="0 0 55 40" fill="none" xmlns="http://www.w3.org/2000/svg">
<g clip-path="url(#clip0_547_19624)">
<path d="M12.2417 14.3532C11.8694 14.0032 11.4232 13.7357 10.9339 13.5692C10.4447 13.4027 9.92397 13.3411 9.40778 13.3886H5.65421C5.52302 13.3911 5.39686 13.4379 5.29749 13.521C5.19811 13.604 5.13176 13.7182 5.10994 13.8436L3.4396 23.4527C3.43429 23.4987 3.43909 23.5453 3.45367 23.5894C3.46826 23.6334 3.4923 23.6738 3.52422 23.7082C3.55613 23.7426 3.5952 23.7701 3.63884 23.7888C3.68247 23.8076 3.72971 23.8171 3.77742 23.8167H5.65421C5.76647 23.812 5.87475 23.7748 5.96504 23.71C6.05535 23.6451 6.12357 23.5555 6.16094 23.4527L6.57383 20.832C6.58778 20.7066 6.64922 20.5905 6.74631 20.5066C6.84339 20.4226 6.96918 20.3763 7.09933 20.3771H8.31924C8.85886 20.4375 9.40553 20.3898 9.92525 20.2366C10.445 20.0833 10.9267 19.8282 11.3403 19.4868C11.754 19.1453 12.0908 18.7251 12.3298 18.2521C12.5689 17.7791 12.705 17.2635 12.7297 16.7372C12.8354 16.3296 12.8465 15.9043 12.7621 15.492C12.6777 15.0797 12.5 14.6907 12.2417 14.3532ZM9.85821 16.8828C9.65176 18.2296 8.58199 18.2296 7.56853 18.2296H6.98672L7.38085 15.6999C7.39369 15.6258 7.43239 15.5583 7.49047 15.5086C7.54856 15.4589 7.6225 15.4301 7.6999 15.4269H7.96265C8.65706 15.4269 9.33271 15.4269 9.65176 15.8091C9.76859 15.9608 9.84796 16.1365 9.88375 16.3226C9.91954 16.5088 9.91079 16.7005 9.85821 16.8828Z" fill="#253B80"/>
<path d="M21.0063 16.8273H19.1295C19.0531 16.8313 18.9797 16.8578 18.9195 16.9035C18.859 16.949 18.8144 17.0113 18.7917 17.082V17.6098L18.6603 17.4096C18.3761 17.1325 18.031 16.9212 17.6508 16.792C17.2703 16.6627 16.8648 16.6187 16.4644 16.6635C15.4377 16.6866 14.4537 17.0669 13.6922 17.7352C12.9308 18.4035 12.4426 19.3149 12.3167 20.3033C12.2218 20.7887 12.2346 21.2881 12.3543 21.7681C12.4741 22.2482 12.698 22.6981 13.0111 23.0878C13.3047 23.403 13.6688 23.6487 14.0753 23.8064C14.482 23.9642 14.9204 24.0296 15.3571 23.9977C15.8329 24.0026 16.3049 23.9133 16.7439 23.7349C17.1827 23.5564 17.5794 23.2929 17.9096 22.9604V23.4881C17.9041 23.5722 17.9325 23.655 17.9882 23.7193C18.0441 23.7837 18.1235 23.8248 18.2099 23.8339H19.8802C20.0106 23.8398 20.1386 23.7983 20.2392 23.7175C20.3398 23.6368 20.4059 23.5225 20.4245 23.3972L21.4192 17.1912C21.4402 17.1366 21.4439 17.0773 21.4299 17.0205C21.4158 16.9639 21.3844 16.9126 21.34 16.8735C21.2955 16.8344 21.2399 16.8089 21.1804 16.8007C21.1209 16.7925 21.0601 16.8018 21.0063 16.8273ZM16.3143 22.0868C16.0848 22.0992 15.8554 22.0632 15.6417 21.9816C15.4277 21.8999 15.2348 21.7743 15.0756 21.6136C14.9384 21.4289 14.8412 21.2193 14.7896 20.9972C14.738 20.7752 14.7331 20.5453 14.7753 20.3215C14.8346 19.8243 15.079 19.3651 15.4624 19.0301C15.846 18.695 16.3423 18.5072 16.8586 18.5016C17.0911 18.4914 17.3231 18.5318 17.5376 18.6201C17.7519 18.7081 17.9432 18.8419 18.0973 19.0112C18.2508 19.1839 18.3596 19.3893 18.4152 19.6108C18.4707 19.8323 18.4711 20.0634 18.4163 20.2851C18.3602 20.7854 18.1138 21.2473 17.7249 21.5805C17.336 21.9137 16.833 22.0943 16.3143 22.0868Z" fill="#253B80"/>
<path d="M30.8779 16.8271H29.0012C28.9116 16.826 28.8231 16.8473 28.7442 16.8886C28.6654 16.9301 28.5988 16.9903 28.5507 17.0636L25.9795 20.7035L24.891 17.1546C24.8557 17.0456 24.7861 16.9501 24.6917 16.8817C24.5975 16.813 24.4834 16.7748 24.3655 16.7725H22.4887C22.4371 16.7723 22.3861 16.7841 22.3401 16.8072C22.2941 16.8303 22.2547 16.864 22.2252 16.9051C22.1956 16.9464 22.1768 16.9939 22.1704 17.0438C22.164 17.0935 22.1702 17.1441 22.1884 17.191L24.2341 23.0876L22.3573 25.7446C22.3226 25.7912 22.3018 25.8462 22.2973 25.9035C22.2928 25.9607 22.305 26.0182 22.3322 26.0691C22.3594 26.1201 22.4009 26.1629 22.4517 26.1923C22.5026 26.2218 22.561 26.2369 22.6201 26.236H24.4969C24.5851 26.2409 24.6731 26.2233 24.7521 26.1851C24.8311 26.1467 24.8985 26.089 24.9473 26.0176L31.1407 17.2638C31.1621 17.2189 31.1718 17.1694 31.1692 17.1199C31.1666 17.0704 31.152 17.0223 31.1262 16.9794C31.1003 16.9366 31.0645 16.9004 31.0213 16.874C30.978 16.8474 30.929 16.8314 30.8779 16.8271Z" fill="#253B80"/>
<path d="M39.8875 14.3525C39.5144 14.0035 39.0681 13.7367 38.579 13.5702C38.0899 13.4038 37.5697 13.3416 37.0536 13.3879H33.1686C33.0404 13.3876 32.9169 13.4343 32.8229 13.5187C32.7289 13.6032 32.6713 13.719 32.6619 13.8429L31.0666 23.452C31.0612 23.498 31.0661 23.5446 31.0807 23.5887C31.0951 23.6327 31.1194 23.6733 31.1513 23.7077C31.1832 23.7419 31.2222 23.7694 31.2657 23.7881C31.3095 23.8069 31.3566 23.8163 31.4044 23.816H33.3938C33.4839 23.8121 33.5695 23.7768 33.635 23.7166C33.7005 23.6565 33.7414 23.5756 33.7504 23.4884L34.2008 20.7403C34.2185 20.6164 34.2812 20.5026 34.3775 20.4193C34.4735 20.3359 34.5972 20.2886 34.7263 20.2853H35.965C36.5037 20.3405 37.0481 20.2888 37.5656 20.1335C38.083 19.9783 38.5625 19.7228 38.9748 19.3825C39.3873 19.042 39.7242 18.6239 39.965 18.1535C40.2056 17.683 40.3453 17.17 40.3755 16.6455C40.4588 16.2513 40.4584 15.8446 40.3745 15.4504C40.2906 15.0561 40.1249 14.6826 39.8875 14.3525ZM37.4852 16.9367C37.2975 18.2834 36.2278 18.2834 35.1955 18.2834H34.6137L35.0266 15.7538C35.0289 15.7155 35.0392 15.6781 35.0565 15.6437C35.0737 15.6092 35.098 15.5784 35.1276 15.5531C35.1573 15.5277 35.1918 15.5083 35.2291 15.4959C35.2667 15.4835 35.3061 15.4784 35.3457 15.4808H35.6272C36.3216 15.4808 36.9785 15.4808 37.3163 15.863C37.4184 16.0111 37.4864 16.1789 37.5154 16.3547C37.5447 16.5307 37.5344 16.7105 37.4852 16.8821V16.9367Z" fill="#179BD7"/>
<path d="M48.6331 16.8281H46.7563C46.6782 16.8261 46.602 16.8505 46.5404 16.8969C46.4789 16.9435 46.4357 17.009 46.4184 17.0829V17.6107L46.2871 17.4105C46.0074 17.1324 45.6659 16.9204 45.2882 16.791C44.9106 16.6616 44.5075 16.6183 44.11 16.6643C43.0832 16.6874 42.0992 17.0678 41.3378 17.7359C40.5764 18.4042 40.088 19.3158 39.9623 20.3042C39.857 20.7892 39.8647 21.2907 39.985 21.7725C40.1051 22.2542 40.3345 22.7037 40.6567 23.0886C40.9455 23.4044 41.3061 23.651 41.71 23.809C42.1137 23.9667 42.5498 24.0317 42.9839 23.9986C43.4625 24.0028 43.937 23.9131 44.3788 23.7347C44.8207 23.5565 45.2209 23.2934 45.5551 22.9612V23.489C45.5497 23.5325 45.554 23.5767 45.5677 23.6186C45.5812 23.6604 45.6039 23.699 45.6341 23.7316C45.6644 23.7644 45.7013 23.7904 45.7426 23.8082C45.7841 23.8261 45.8289 23.835 45.8742 23.8348H47.5445C47.6718 23.8361 47.7953 23.7924 47.8919 23.7121C47.9886 23.6317 48.0518 23.5201 48.07 23.398L48.9896 17.1921C48.999 17.1439 48.9964 17.0942 48.9821 17.0472C48.9679 17.0001 48.9422 16.9572 48.9074 16.9215C48.8725 16.886 48.8295 16.8591 48.7819 16.8427C48.734 16.8265 48.6832 16.8214 48.6331 16.8281ZM43.9599 22.0877C43.7273 22.1013 43.4948 22.0662 43.2776 21.9845C43.0607 21.9028 42.8644 21.7767 42.7024 21.6145C42.5645 21.4303 42.4682 21.2201 42.4196 20.9975C42.3712 20.7748 42.3715 20.5448 42.4209 20.3224C42.4719 19.8252 42.7112 19.3638 43.0924 19.0277C43.4738 18.6915 43.97 18.5045 44.4854 18.5024C44.7243 18.4821 44.9647 18.5181 45.186 18.6076C45.4074 18.6972 45.603 18.8375 45.7561 19.0164C45.9093 19.1953 46.0155 19.4077 46.0654 19.6352C46.1153 19.8625 46.1076 20.0983 46.0431 20.3224C45.9868 20.8161 45.7415 21.2714 45.3558 21.5983C44.9701 21.9252 44.4718 22.0997 43.9599 22.0877Z" fill="#179BD7"/>
<path d="M52.9308 13.3337H51.054C50.9772 13.3285 50.9014 13.352 50.8421 13.3994C50.7826 13.4468 50.7443 13.5145 50.7349 13.5885L49.2335 23.4525C49.2252 23.4974 49.2273 23.5437 49.2395 23.5877C49.2517 23.6317 49.2738 23.6727 49.3044 23.7075C49.3348 23.7422 49.3729 23.7701 49.4159 23.789C49.4587 23.8077 49.5054 23.8172 49.5525 23.8165H51.1478C51.2751 23.8177 51.3985 23.7741 51.4952 23.6938C51.5919 23.6134 51.6551 23.5018 51.6733 23.3797L53.2498 13.6795C53.2551 13.6359 53.2507 13.5918 53.2372 13.5499C53.2235 13.5081 53.2008 13.4695 53.1708 13.4368C53.1406 13.4041 53.1036 13.378 53.0621 13.3602C53.0208 13.3425 52.976 13.3334 52.9308 13.3337Z" fill="#179BD7"/>
</g>
<defs>
<clipPath id="clip0_547_19624">
<rect width="55" height="40" rx="4" fill="white"/>
</clipPath>
</defs>
</svg>
