<svg width="63" height="31" fill="none" xmlns="http://www.w3.org/2000/svg">
    <path d="M43.283 3.443H16.525V23.47h26.758V3.443Z" fill="#AECDFB" />
    <path
        d="M46.04 26.915H31.236a.689.689 0 1 1 0-1.378H45.35V1.377H14.46v2.424a.69.69 0 0 1-1.378 0V.689A.69.69 0 0 1 13.771 0H46.04c.38 0 .689.309.689.689v25.537c0 .38-.308.689-.69.689ZM19.571 26.914h-5.8a.689.689 0 0 1-.689-.689v-3.47a.689.689 0 1 1 1.378 0v2.781h5.111a.689.689 0 1 1 0 1.378Z"
        fill="#0C0C0C" />
    <path
        d="M61.81 26.915a.689.689 0 0 1-.688-.684l-.066-9.739-7.062-7.413h-7.267v16.458h3.917a.688.688 0 1 1 0 1.378h-4.605a.688.688 0 0 1-.69-.689V8.39c0-.38.309-.689.69-.689h8.25a.69.69 0 0 1 .5.214l7.453 7.824a.69.69 0 0 1 .19.47l.067 10.012a.689.689 0 0 1-.684.694h-.004Z"
        fill="#0C0C0C" />
    <path
        d="M56.225 16.903h-5.831a.688.688 0 0 1-.689-.69V8.39a.689.689 0 1 1 1.378 0v7.136h5.142a.689.689 0 1 1 0 1.377ZM23.215 30.56a4.34 4.34 0 0 1-4.334-4.334 4.339 4.339 0 0 1 4.334-4.333 4.339 4.339 0 0 1 4.334 4.333 4.339 4.339 0 0 1-4.334 4.334Zm0-7.29a2.96 2.96 0 0 0-2.956 2.956 2.96 2.96 0 0 0 2.956 2.956 2.959 2.959 0 0 0 2.956-2.956 2.96 2.96 0 0 0-2.956-2.956ZM54.29 30.56a4.339 4.339 0 0 1-4.335-4.334 4.339 4.339 0 0 1 4.335-4.333 4.339 4.339 0 0 1 4.333 4.333 4.339 4.339 0 0 1-4.333 4.334Zm0-7.29a2.96 2.96 0 0 0-2.957 2.956 2.96 2.96 0 0 0 2.957 2.956 2.96 2.96 0 0 0 2.956-2.956 2.96 2.96 0 0 0-2.956-2.956ZM29.904 14.145H1.19a.69.69 0 0 1 0-1.377h28.715a.69.69 0 0 1 0 1.377ZM29.905 8.313H8.48a.69.69 0 0 1 0-1.377h21.426a.69.69 0 1 1-.001 1.377ZM29.905 19.977H8.48a.689.689 0 1 1 0-1.377h21.426a.689.689 0 1 1-.001 1.377Z"
        fill="#0C0C0C" />
</svg>