<svg width="32" height="24" fill="none" xmlns="http://www.w3.org/2000/svg">
    <g clip-path="url(#a)" style="mix-blend-mode:luminosity">
        <path d="M0 0h32v24H0V0Z" fill="#fff" />
        <path
            d="M28.444 0H3.556C1.592 0 0 1.79 0 4v16c0 2.21 1.592 4 3.556 4h24.888C30.408 24 32 22.21 32 20V4c0-2.21-1.592-4-3.556-4Z"
            fill="#fff" />
        <path
            d="M28.443.5H3.554C1.836.5.444 2.067.444 4v16c0 1.933 1.392 3.5 3.11 3.5h24.89c1.718 0 3.11-1.567 3.11-3.5V4c0-1.933-1.392-3.5-3.11-3.5Z"
            stroke="#333" stroke-opacity=".07" stroke-width=".97" />
        <path
            d="m13.71 9.116-2.663 6.687H9.294l-1.29-5.29a.75.75 0 0 0-.12-.349.706.706 0 0 0-.27-.242A6.922 6.922 0 0 0 6 9.349v-.194h2.783a.76.76 0 0 1 .501.2c.14.125.231.299.26.49l.687 3.881 1.707-4.551 1.772-.059Zm6.8 4.503c0-1.756-2.32-1.853-2.3-2.649 0-.233.222-.495.695-.553a2.962 2.962 0 0 1 1.623.291l.288-1.417A4.395 4.395 0 0 0 19.276 9c-1.623 0-2.783.903-2.783 2.213 0 .97.816 1.494 1.438 1.814.621.32.853.544.853.835 0 .446-.51.64-.983.65a3.274 3.274 0 0 1-1.688-.417l-.325 1.465a4.819 4.819 0 0 0 1.855.35c1.726 0 2.848-.893 2.858-2.29h.009Zm4.277 2.184h1.512l-1.317-6.687H23.59c-.151 0-.299.047-.425.135a.79.79 0 0 0-.28.36l-2.459 6.192h1.726l.334-.97h2.106l.195.97Zm-1.856-2.368.872-2.504.52 2.494-1.392.01ZM16.03 9.116l-1.354 6.687H13.06l1.355-6.687h1.614Z"
            fill="#1434CB" />
    </g>
    <defs>
        <clipPath id="a">
            <rect width="32" height="24" rx="4" fill="#fff" />
        </clipPath>
    </defs>
</svg>