<svg width="32" height="32" fill="none" xmlns="http://www.w3.org/2000/svg"><path fill-rule="evenodd" clip-rule="evenodd" d="M13.333 12.71v6.58L18.816 16l-5.483-3.29Zm-2.667 8.935a1.333 1.333 0 0 0 2.02 1.143l9.408-5.645a1.333 1.333 0 0 0 0-2.286l-9.409-5.645a1.333 1.333 0 0 0-2.019 1.143v11.29Z" fill="#fff"/><path fill-rule="evenodd" clip-rule="evenodd" d="M26.666 23.37V8.629c0-1.056-.57-1.715-1.195-1.906-2.148-.66-5.442-1.39-9.472-1.39-4.03 0-7.323.73-9.471 1.39-.626.191-1.195.85-1.195 1.906v14.74c0 1.056.57 1.715 1.195 1.907 2.148.66 5.442 1.39 9.471 1.39 4.03 0 7.324-.73 9.472-1.39.625-.192 1.195-.85 1.195-1.906ZM5.746 4.173c-1.932.593-3.08 2.436-3.08 4.456v14.74c0 2.021 1.148 3.864 3.08 4.457 2.344.719 5.905 1.507 10.253 1.507 4.349 0 7.91-.788 10.254-1.507 1.931-.593 3.08-2.436 3.08-4.456V8.629c0-2.02-1.149-3.863-3.08-4.456C23.91 3.453 20.348 2.666 16 2.666c-4.348 0-7.909.788-10.253 1.507Z" fill="#fff"/></svg>